<mxfile host="app.diagrams.net" modified="2023-10-26T15:22:23.817Z" agent="Mozilla/5.0 (Macintosh; Intel Mac OS X 10_15_7) AppleWebKit/537.36 (KHTML, like Gecko) Chrome/116.0.5845.2296 YaBrowser/23.9.0.2296 Yowser/2.5 Safari/537.36" etag="GwzXVC-3sEmwssKBUWti" version="22.0.8" type="device">
  <diagram name="Страница — 1" id="A_bx5eHP0rTOwsD1YNuk">
    <mxGraphModel dx="1026" dy="639" grid="1" gridSize="10" guides="1" tooltips="1" connect="1" arrows="1" fold="1" page="1" pageScale="1" pageWidth="827" pageHeight="1169" math="0" shadow="0">
      <root>
        <mxCell id="0" />
        <mxCell id="1" parent="0" />
        <mxCell id="BgpcmBEpxbnPgex4_hgU-1" value="&lt;p style=&quot;margin:0px;margin-top:4px;text-align:center;&quot;&gt;&lt;b&gt;Class&lt;/b&gt;&lt;/p&gt;&lt;hr size=&quot;1&quot;&gt;&lt;div style=&quot;text-align: center; height: 2px;&quot;&gt;Animals&lt;/div&gt;" style="verticalAlign=top;align=left;overflow=fill;fontSize=12;fontFamily=Helvetica;html=1;whiteSpace=wrap;" vertex="1" parent="1">
          <mxGeometry x="360" y="120" width="90" height="60" as="geometry" />
        </mxCell>
        <mxCell id="BgpcmBEpxbnPgex4_hgU-10" style="edgeStyle=orthogonalEdgeStyle;rounded=0;orthogonalLoop=1;jettySize=auto;html=1;exitX=0.5;exitY=0;exitDx=0;exitDy=0;entryX=0.5;entryY=1;entryDx=0;entryDy=0;" edge="1" parent="1" source="BgpcmBEpxbnPgex4_hgU-2" target="BgpcmBEpxbnPgex4_hgU-1">
          <mxGeometry relative="1" as="geometry" />
        </mxCell>
        <mxCell id="BgpcmBEpxbnPgex4_hgU-12" value="extends" style="edgeLabel;html=1;align=center;verticalAlign=middle;resizable=0;points=[];" vertex="1" connectable="0" parent="BgpcmBEpxbnPgex4_hgU-10">
          <mxGeometry x="-0.0511" y="1" relative="1" as="geometry">
            <mxPoint as="offset" />
          </mxGeometry>
        </mxCell>
        <mxCell id="BgpcmBEpxbnPgex4_hgU-2" value="&lt;p style=&quot;margin:0px;margin-top:4px;text-align:center;&quot;&gt;&lt;b&gt;Class&lt;/b&gt;&lt;/p&gt;&lt;hr size=&quot;1&quot;&gt;&lt;div style=&quot;text-align: center; height: 2px;&quot;&gt;Pets&lt;/div&gt;" style="verticalAlign=top;align=left;overflow=fill;fontSize=12;fontFamily=Helvetica;html=1;whiteSpace=wrap;" vertex="1" parent="1">
          <mxGeometry x="159" y="340" width="90" height="60" as="geometry" />
        </mxCell>
        <mxCell id="BgpcmBEpxbnPgex4_hgU-11" style="edgeStyle=orthogonalEdgeStyle;rounded=0;orthogonalLoop=1;jettySize=auto;html=1;exitX=0.5;exitY=0;exitDx=0;exitDy=0;entryX=0.5;entryY=1;entryDx=0;entryDy=0;" edge="1" parent="1" source="BgpcmBEpxbnPgex4_hgU-3" target="BgpcmBEpxbnPgex4_hgU-1">
          <mxGeometry relative="1" as="geometry">
            <mxPoint x="439" y="300" as="targetPoint" />
          </mxGeometry>
        </mxCell>
        <mxCell id="BgpcmBEpxbnPgex4_hgU-13" value="extends" style="edgeLabel;html=1;align=center;verticalAlign=middle;resizable=0;points=[];" vertex="1" connectable="0" parent="BgpcmBEpxbnPgex4_hgU-11">
          <mxGeometry x="0.0017" y="2" relative="1" as="geometry">
            <mxPoint as="offset" />
          </mxGeometry>
        </mxCell>
        <mxCell id="BgpcmBEpxbnPgex4_hgU-3" value="&lt;p style=&quot;margin:0px;margin-top:4px;text-align:center;&quot;&gt;&lt;b&gt;Class&lt;/b&gt;&lt;/p&gt;&lt;hr size=&quot;1&quot;&gt;&lt;div style=&quot;text-align: center; height: 2px;&quot;&gt;PackedAnimals&lt;/div&gt;" style="verticalAlign=top;align=left;overflow=fill;fontSize=12;fontFamily=Helvetica;html=1;whiteSpace=wrap;" vertex="1" parent="1">
          <mxGeometry x="579" y="340" width="90" height="60" as="geometry" />
        </mxCell>
        <mxCell id="BgpcmBEpxbnPgex4_hgU-14" style="edgeStyle=orthogonalEdgeStyle;rounded=0;orthogonalLoop=1;jettySize=auto;html=1;exitX=0.5;exitY=0;exitDx=0;exitDy=0;entryX=0.5;entryY=1;entryDx=0;entryDy=0;" edge="1" parent="1" source="BgpcmBEpxbnPgex4_hgU-4" target="BgpcmBEpxbnPgex4_hgU-2">
          <mxGeometry relative="1" as="geometry" />
        </mxCell>
        <mxCell id="BgpcmBEpxbnPgex4_hgU-17" value="extends" style="edgeLabel;html=1;align=center;verticalAlign=middle;resizable=0;points=[];" vertex="1" connectable="0" parent="BgpcmBEpxbnPgex4_hgU-14">
          <mxGeometry x="-0.1474" y="-1" relative="1" as="geometry">
            <mxPoint as="offset" />
          </mxGeometry>
        </mxCell>
        <mxCell id="BgpcmBEpxbnPgex4_hgU-4" value="&lt;p style=&quot;margin:0px;margin-top:4px;text-align:center;&quot;&gt;&lt;b&gt;Class&lt;/b&gt;&lt;/p&gt;&lt;hr size=&quot;1&quot;&gt;&lt;div style=&quot;text-align: center; height: 2px;&quot;&gt;Dog&lt;/div&gt;" style="verticalAlign=top;align=left;overflow=fill;fontSize=12;fontFamily=Helvetica;html=1;whiteSpace=wrap;" vertex="1" parent="1">
          <mxGeometry x="39" y="520" width="90" height="60" as="geometry" />
        </mxCell>
        <mxCell id="BgpcmBEpxbnPgex4_hgU-15" style="edgeStyle=orthogonalEdgeStyle;rounded=0;orthogonalLoop=1;jettySize=auto;html=1;exitX=0.5;exitY=0;exitDx=0;exitDy=0;" edge="1" parent="1" source="BgpcmBEpxbnPgex4_hgU-5">
          <mxGeometry relative="1" as="geometry">
            <mxPoint x="204" y="400" as="targetPoint" />
          </mxGeometry>
        </mxCell>
        <mxCell id="BgpcmBEpxbnPgex4_hgU-24" value="extends" style="edgeLabel;html=1;align=center;verticalAlign=middle;resizable=0;points=[];" vertex="1" connectable="0" parent="BgpcmBEpxbnPgex4_hgU-15">
          <mxGeometry x="-0.4327" y="1" relative="1" as="geometry">
            <mxPoint as="offset" />
          </mxGeometry>
        </mxCell>
        <mxCell id="BgpcmBEpxbnPgex4_hgU-5" value="&lt;p style=&quot;margin:0px;margin-top:4px;text-align:center;&quot;&gt;&lt;b&gt;Class&lt;/b&gt;&lt;/p&gt;&lt;hr size=&quot;1&quot;&gt;&lt;div style=&quot;text-align: center; height: 2px;&quot;&gt;Cat&lt;/div&gt;" style="verticalAlign=top;align=left;overflow=fill;fontSize=12;fontFamily=Helvetica;html=1;whiteSpace=wrap;" vertex="1" parent="1">
          <mxGeometry x="159" y="520" width="90" height="60" as="geometry" />
        </mxCell>
        <mxCell id="BgpcmBEpxbnPgex4_hgU-16" style="edgeStyle=orthogonalEdgeStyle;rounded=0;orthogonalLoop=1;jettySize=auto;html=1;exitX=0.5;exitY=0;exitDx=0;exitDy=0;entryX=0.5;entryY=1;entryDx=0;entryDy=0;" edge="1" parent="1" source="BgpcmBEpxbnPgex4_hgU-6" target="BgpcmBEpxbnPgex4_hgU-2">
          <mxGeometry relative="1" as="geometry" />
        </mxCell>
        <mxCell id="BgpcmBEpxbnPgex4_hgU-18" value="extends" style="edgeLabel;html=1;align=center;verticalAlign=middle;resizable=0;points=[];" vertex="1" connectable="0" parent="BgpcmBEpxbnPgex4_hgU-16">
          <mxGeometry x="0.09" y="-1" relative="1" as="geometry">
            <mxPoint as="offset" />
          </mxGeometry>
        </mxCell>
        <mxCell id="BgpcmBEpxbnPgex4_hgU-6" value="&lt;p style=&quot;margin:0px;margin-top:4px;text-align:center;&quot;&gt;&lt;b&gt;Class&lt;/b&gt;&lt;/p&gt;&lt;hr size=&quot;1&quot;&gt;&lt;div style=&quot;text-align: center; height: 2px;&quot;&gt;Hamster&lt;/div&gt;" style="verticalAlign=top;align=left;overflow=fill;fontSize=12;fontFamily=Helvetica;html=1;whiteSpace=wrap;" vertex="1" parent="1">
          <mxGeometry x="289" y="520" width="90" height="60" as="geometry" />
        </mxCell>
        <mxCell id="BgpcmBEpxbnPgex4_hgU-21" style="edgeStyle=orthogonalEdgeStyle;rounded=0;orthogonalLoop=1;jettySize=auto;html=1;exitX=0.5;exitY=0;exitDx=0;exitDy=0;" edge="1" parent="1" source="BgpcmBEpxbnPgex4_hgU-7" target="BgpcmBEpxbnPgex4_hgU-3">
          <mxGeometry relative="1" as="geometry" />
        </mxCell>
        <mxCell id="BgpcmBEpxbnPgex4_hgU-23" value="extends" style="edgeLabel;html=1;align=center;verticalAlign=middle;resizable=0;points=[];" vertex="1" connectable="0" parent="BgpcmBEpxbnPgex4_hgU-21">
          <mxGeometry x="0.0316" y="1" relative="1" as="geometry">
            <mxPoint as="offset" />
          </mxGeometry>
        </mxCell>
        <mxCell id="BgpcmBEpxbnPgex4_hgU-7" value="&lt;p style=&quot;margin:0px;margin-top:4px;text-align:center;&quot;&gt;&lt;b&gt;Class&lt;/b&gt;&lt;/p&gt;&lt;hr size=&quot;1&quot;&gt;&lt;div style=&quot;text-align: center; height: 2px;&quot;&gt;Donkey&lt;/div&gt;" style="verticalAlign=top;align=left;overflow=fill;fontSize=12;fontFamily=Helvetica;html=1;whiteSpace=wrap;" vertex="1" parent="1">
          <mxGeometry x="699" y="520" width="90" height="60" as="geometry" />
        </mxCell>
        <mxCell id="BgpcmBEpxbnPgex4_hgU-20" style="edgeStyle=orthogonalEdgeStyle;rounded=0;orthogonalLoop=1;jettySize=auto;html=1;exitX=0.5;exitY=0;exitDx=0;exitDy=0;" edge="1" parent="1" source="BgpcmBEpxbnPgex4_hgU-8">
          <mxGeometry relative="1" as="geometry">
            <mxPoint x="624" y="400" as="targetPoint" />
          </mxGeometry>
        </mxCell>
        <mxCell id="BgpcmBEpxbnPgex4_hgU-25" value="extends" style="edgeLabel;html=1;align=center;verticalAlign=middle;resizable=0;points=[];" vertex="1" connectable="0" parent="BgpcmBEpxbnPgex4_hgU-20">
          <mxGeometry x="-0.4327" y="-1" relative="1" as="geometry">
            <mxPoint as="offset" />
          </mxGeometry>
        </mxCell>
        <mxCell id="BgpcmBEpxbnPgex4_hgU-8" value="&lt;p style=&quot;margin:0px;margin-top:4px;text-align:center;&quot;&gt;&lt;b&gt;Class&lt;/b&gt;&lt;/p&gt;&lt;hr size=&quot;1&quot;&gt;&lt;div style=&quot;text-align: center; height: 2px;&quot;&gt;Camel&lt;/div&gt;" style="verticalAlign=top;align=left;overflow=fill;fontSize=12;fontFamily=Helvetica;html=1;whiteSpace=wrap;" vertex="1" parent="1">
          <mxGeometry x="579" y="520" width="90" height="60" as="geometry" />
        </mxCell>
        <mxCell id="BgpcmBEpxbnPgex4_hgU-19" style="edgeStyle=orthogonalEdgeStyle;rounded=0;orthogonalLoop=1;jettySize=auto;html=1;exitX=0.5;exitY=0;exitDx=0;exitDy=0;entryX=0.5;entryY=1;entryDx=0;entryDy=0;" edge="1" parent="1" source="BgpcmBEpxbnPgex4_hgU-9" target="BgpcmBEpxbnPgex4_hgU-3">
          <mxGeometry relative="1" as="geometry" />
        </mxCell>
        <mxCell id="BgpcmBEpxbnPgex4_hgU-22" value="extends" style="edgeLabel;html=1;align=center;verticalAlign=middle;resizable=0;points=[];" vertex="1" connectable="0" parent="BgpcmBEpxbnPgex4_hgU-19">
          <mxGeometry x="-0.1053" relative="1" as="geometry">
            <mxPoint as="offset" />
          </mxGeometry>
        </mxCell>
        <mxCell id="BgpcmBEpxbnPgex4_hgU-9" value="&lt;p style=&quot;margin:0px;margin-top:4px;text-align:center;&quot;&gt;&lt;b&gt;Class&lt;/b&gt;&lt;/p&gt;&lt;hr size=&quot;1&quot;&gt;&lt;div style=&quot;text-align: center; height: 2px;&quot;&gt;Horse&lt;/div&gt;" style="verticalAlign=top;align=left;overflow=fill;fontSize=12;fontFamily=Helvetica;html=1;whiteSpace=wrap;" vertex="1" parent="1">
          <mxGeometry x="459" y="520" width="90" height="60" as="geometry" />
        </mxCell>
        <mxCell id="BgpcmBEpxbnPgex4_hgU-26" value="&lt;font style=&quot;font-size: 36px;&quot;&gt;Иерархия классов Animals&lt;/font&gt;" style="text;html=1;align=center;verticalAlign=middle;resizable=0;points=[];autosize=1;strokeColor=none;fillColor=none;" vertex="1" parent="1">
          <mxGeometry x="150" y="3" width="470" height="60" as="geometry" />
        </mxCell>
      </root>
    </mxGraphModel>
  </diagram>
</mxfile>
